<?xml version="1.0" encoding="UTF-8" standalone="no"?>
<!DOCTYPE svg PUBLIC "-//W3C//DTD SVG 1.1//EN"
 "http://www.w3.org/Graphics/SVG/1.1/DTD/svg11.dtd">
<!-- Generated by graphviz version 2.43.0 (0)
 -->
<!-- Title: inheritanceb6798e555a Pages: 1 -->
<svg width="539pt" height="64pt"
 viewBox="0.00 0.00 539.00 64.00" xmlns="http://www.w3.org/2000/svg" xmlns:xlink="http://www.w3.org/1999/xlink">
<g id="graph0" class="graph" transform="scale(1 1) rotate(0) translate(4 60)">
<title>inheritanceb6798e555a</title>
<!-- abc.ABC -->
<g id="node1" class="node">
<title>abc.ABC</title>
<g id="a_node1"><a xlink:title="Helper class that provides a standard way to create an ABC using">
<polygon fill="white" stroke="black" stroke-width="0.5" points="57,-37 0,-37 0,-18 57,-18 57,-37"/>
<text text-anchor="middle" x="28.5" y="-25" font-family="Vera Sans, DejaVu Sans, Liberation Sans, Arial, Helvetica, sans" font-size="10.00">abc.ABC</text>
</a>
</g>
</g>
<!-- vqs.VariationalState -->
<g id="node5" class="node">
<title>vqs.VariationalState</title>
<g id="a_node5"><a xlink:href="../netket.vqs.VariationalState.html#netket.vqs.VariationalState" xlink:title="Abstract class for variational states representing either pure states" target="_top">
<polygon fill="white" stroke="black" stroke-width="0.5" points="208,-37 93,-37 93,-18 208,-18 208,-37"/>
<text text-anchor="middle" x="150.5" y="-25" font-family="Vera Sans, DejaVu Sans, Liberation Sans, Arial, Helvetica, sans" font-size="10.00">vqs.VariationalState</text>
</a>
</g>
</g>
<!-- abc.ABC&#45;&gt;vqs.VariationalState -->
<g id="edge5" class="edge">
<title>abc.ABC&#45;&gt;vqs.VariationalState</title>
<path fill="none" stroke="black" stroke-width="0.5" d="M57.03,-27.5C66.19,-27.5 76.79,-27.5 87.48,-27.5"/>
<polygon fill="black" stroke="black" stroke-width="0.5" points="87.72,-29.25 92.72,-27.5 87.72,-25.75 87.72,-29.25"/>
</g>
<!-- vqs.MCMixedState -->
<g id="node2" class="node">
<title>vqs.MCMixedState</title>
<g id="a_node2"><a xlink:href="../docs/_generated/variational/netket.vqs.MCMixedState.html#netket.vqs.MCMixedState" xlink:title="Variational State for a Mixed Variational Neural Quantum State." target="_top">
<polygon fill="white" stroke="black" stroke-width="0.5" points="531,-37 424,-37 424,-18 531,-18 531,-37"/>
<text text-anchor="middle" x="477.5" y="-25" font-family="Vera Sans, DejaVu Sans, Liberation Sans, Arial, Helvetica, sans" font-size="10.00">vqs.MCMixedState</text>
</a>
</g>
</g>
<!-- vqs.VariationalMixedState -->
<g id="node3" class="node">
<title>vqs.VariationalMixedState</title>
<polygon fill="white" stroke="black" stroke-width="0.5" points="388,-56 244,-56 244,-37 388,-37 388,-56"/>
<text text-anchor="middle" x="316" y="-44" font-family="Vera Sans, DejaVu Sans, Liberation Sans, Arial, Helvetica, sans" font-size="10.00">vqs.VariationalMixedState</text>
</g>
<!-- vqs.VariationalMixedState&#45;&gt;vqs.MCMixedState -->
<g id="edge1" class="edge">
<title>vqs.VariationalMixedState&#45;&gt;vqs.MCMixedState</title>
<path fill="none" stroke="black" stroke-width="0.5" d="M388.35,-38C398.52,-36.79 408.88,-35.56 418.75,-34.38"/>
<polygon fill="black" stroke="black" stroke-width="0.5" points="419.1,-36.1 423.86,-33.77 418.69,-32.62 419.1,-36.1"/>
</g>
<!-- vqs.MCState -->
<g id="node4" class="node">
<title>vqs.MCState</title>
<g id="a_node4"><a xlink:href="../netket.vqs.MCState.html#netket.vqs.MCState" xlink:title="Variational State for a Variational Neural Quantum State." target="_top">
<polygon fill="white" stroke="black" stroke-width="0.5" points="355,-19 277,-19 277,0 355,0 355,-19"/>
<text text-anchor="middle" x="316" y="-7" font-family="Vera Sans, DejaVu Sans, Liberation Sans, Arial, Helvetica, sans" font-size="10.00">vqs.MCState</text>
</a>
</g>
</g>
<!-- vqs.MCState&#45;&gt;vqs.MCMixedState -->
<g id="edge2" class="edge">
<title>vqs.MCState&#45;&gt;vqs.MCMixedState</title>
<path fill="none" stroke="black" stroke-width="0.5" d="M355.2,-13.81C374.23,-15.96 397.63,-18.6 418.79,-20.99"/>
<polygon fill="black" stroke="black" stroke-width="0.5" points="418.67,-22.73 423.83,-21.56 419.06,-19.26 418.67,-22.73"/>
</g>
<!-- vqs.VariationalState&#45;&gt;vqs.VariationalMixedState -->
<g id="edge4" class="edge">
<title>vqs.VariationalState&#45;&gt;vqs.VariationalMixedState</title>
<path fill="none" stroke="black" stroke-width="0.5" d="M208.23,-34.09C218.13,-35.24 228.58,-36.46 238.91,-37.66"/>
<polygon fill="black" stroke="black" stroke-width="0.5" points="238.8,-39.41 243.97,-38.25 239.21,-35.93 238.8,-39.41"/>
</g>
<!-- vqs.VariationalState&#45;&gt;vqs.MCState -->
<g id="edge3" class="edge">
<title>vqs.VariationalState&#45;&gt;vqs.MCState</title>
<path fill="none" stroke="black" stroke-width="0.5" d="M208.23,-21.25C228.96,-18.97 252.08,-16.43 271.49,-14.29"/>
<polygon fill="black" stroke="black" stroke-width="0.5" points="272.08,-15.99 276.86,-13.7 271.7,-12.51 272.08,-15.99"/>
</g>
</g>
</svg>
