<?xml version="1.0" encoding="UTF-8" standalone="no"?>
<!DOCTYPE svg PUBLIC "-//W3C//DTD SVG 1.1//EN"
 "http://www.w3.org/Graphics/SVG/1.1/DTD/svg11.dtd">
<!-- Generated by graphviz version 2.43.0 (0)
 -->
<!-- Title: inheritance793b7b4655 Pages: 1 -->
<svg width="447pt" height="27pt"
 viewBox="0.00 0.00 447.00 27.00" xmlns="http://www.w3.org/2000/svg" xmlns:xlink="http://www.w3.org/1999/xlink">
<g id="graph0" class="graph" transform="scale(1 1) rotate(0) translate(4 23)">
<title>inheritance793b7b4655</title>
<!-- abc.ABC -->
<g id="node1" class="node">
<title>abc.ABC</title>
<g id="a_node1"><a xlink:title="Helper class that provides a standard way to create an ABC using">
<polygon fill="white" stroke="black" stroke-width="0.5" points="57,-19 0,-19 0,0 57,0 57,-19"/>
<text text-anchor="middle" x="28.5" y="-7" font-family="Vera Sans, DejaVu Sans, Liberation Sans, Arial, Helvetica, sans" font-size="10.00">abc.ABC</text>
</a>
</g>
</g>
<!-- graph.AbstractGraph -->
<g id="node2" class="node">
<title>graph.AbstractGraph</title>
<g id="a_node2"><a xlink:href="../netket.graph.AbstractGraph.html#netket.graph.AbstractGraph" xlink:title="Abstract class for NetKet graph objects." target="_top">
<polygon fill="white" stroke="black" stroke-width="0.5" points="210,-19 93,-19 93,0 210,0 210,-19"/>
<text text-anchor="middle" x="151.5" y="-7" font-family="Vera Sans, DejaVu Sans, Liberation Sans, Arial, Helvetica, sans" font-size="10.00">graph.AbstractGraph</text>
</a>
</g>
</g>
<!-- abc.ABC&#45;&gt;graph.AbstractGraph -->
<g id="edge1" class="edge">
<title>abc.ABC&#45;&gt;graph.AbstractGraph</title>
<path fill="none" stroke="black" stroke-width="0.5" d="M57.26,-9.5C66.37,-9.5 76.91,-9.5 87.54,-9.5"/>
<polygon fill="black" stroke="black" stroke-width="0.5" points="87.76,-11.25 92.76,-9.5 87.76,-7.75 87.76,-11.25"/>
</g>
<!-- graph.Graph -->
<g id="node3" class="node">
<title>graph.Graph</title>
<g id="a_node3"><a xlink:href="../netket.graph.Graph.html#netket.graph.Graph" xlink:title="A simple implementation of Graph based on an external graph library." target="_top">
<polygon fill="white" stroke="black" stroke-width="0.5" points="323,-19 246,-19 246,0 323,0 323,-19"/>
<text text-anchor="middle" x="284.5" y="-7" font-family="Vera Sans, DejaVu Sans, Liberation Sans, Arial, Helvetica, sans" font-size="10.00">graph.Graph</text>
</a>
</g>
</g>
<!-- graph.AbstractGraph&#45;&gt;graph.Graph -->
<g id="edge2" class="edge">
<title>graph.AbstractGraph&#45;&gt;graph.Graph</title>
<path fill="none" stroke="black" stroke-width="0.5" d="M210.34,-9.5C220.61,-9.5 231.14,-9.5 240.89,-9.5"/>
<polygon fill="black" stroke="black" stroke-width="0.5" points="240.92,-11.25 245.92,-9.5 240.92,-7.75 240.92,-11.25"/>
</g>
<!-- graph.Lattice -->
<g id="node4" class="node">
<title>graph.Lattice</title>
<g id="a_node4"><a xlink:href="../docs/_generated/graph/netket.graph.Lattice.html#netket.graph.Lattice" xlink:title="A lattice built by periodic arrangement of a given unit cell." target="_top">
<polygon fill="white" stroke="black" stroke-width="0.5" points="439,-19 359,-19 359,0 439,0 439,-19"/>
<text text-anchor="middle" x="399" y="-7" font-family="Vera Sans, DejaVu Sans, Liberation Sans, Arial, Helvetica, sans" font-size="10.00">graph.Lattice</text>
</a>
</g>
</g>
<!-- graph.Graph&#45;&gt;graph.Lattice -->
<g id="edge3" class="edge">
<title>graph.Graph&#45;&gt;graph.Lattice</title>
<path fill="none" stroke="black" stroke-width="0.5" d="M323.27,-9.5C333.06,-9.5 343.68,-9.5 353.76,-9.5"/>
<polygon fill="black" stroke="black" stroke-width="0.5" points="353.98,-11.25 358.98,-9.5 353.98,-7.75 353.98,-11.25"/>
</g>
</g>
</svg>
