<?xml version="1.0" encoding="UTF-8" standalone="no"?>
<!DOCTYPE svg PUBLIC "-//W3C//DTD SVG 1.1//EN"
 "http://www.w3.org/Graphics/SVG/1.1/DTD/svg11.dtd">
<!-- Generated by graphviz version 2.43.0 (0)
 -->
<!-- Title: inheritance7d05d5f855 Pages: 1 -->
<svg width="473pt" height="27pt"
 viewBox="0.00 0.00 473.00 27.00" xmlns="http://www.w3.org/2000/svg" xmlns:xlink="http://www.w3.org/1999/xlink">
<g id="graph0" class="graph" transform="scale(1 1) rotate(0) translate(4 23)">
<title>inheritance7d05d5f855</title>
<!-- abc.ABC -->
<g id="node1" class="node">
<title>abc.ABC</title>
<g id="a_node1"><a xlink:title="Helper class that provides a standard way to create an ABC using">
<polygon fill="white" stroke="black" stroke-width="0.5" points="57,-19 0,-19 0,0 57,0 57,-19"/>
<text text-anchor="middle" x="28.5" y="-7" font-family="Vera Sans, DejaVu Sans, Liberation Sans, Arial, Helvetica, sans" font-size="10.00">abc.ABC</text>
</a>
</g>
</g>
<!-- abstract_variational_driver.AbstractVariationalDriver -->
<g id="node2" class="node">
<title>abstract_variational_driver.AbstractVariationalDriver</title>
<g id="a_node2"><a xlink:title="Abstract base class for NetKet Variational Monte Carlo drivers">
<polygon fill="white" stroke="black" stroke-width="0.5" points="366,-19 93,-19 93,0 366,0 366,-19"/>
<text text-anchor="middle" x="229.5" y="-7" font-family="Vera Sans, DejaVu Sans, Liberation Sans, Arial, Helvetica, sans" font-size="10.00">abstract_variational_driver.AbstractVariationalDriver</text>
</a>
</g>
</g>
<!-- abc.ABC&#45;&gt;abstract_variational_driver.AbstractVariationalDriver -->
<g id="edge1" class="edge">
<title>abc.ABC&#45;&gt;abstract_variational_driver.AbstractVariationalDriver</title>
<path fill="none" stroke="black" stroke-width="0.5" d="M57.17,-9.5C65.97,-9.5 76.37,-9.5 87.63,-9.5"/>
<polygon fill="black" stroke="black" stroke-width="0.5" points="87.87,-11.25 92.87,-9.5 87.87,-7.75 87.87,-11.25"/>
</g>
<!-- vmc.VMC -->
<g id="node3" class="node">
<title>vmc.VMC</title>
<g id="a_node3"><a xlink:title="Energy minimization using Variational Monte Carlo (VMC).">
<polygon fill="white" stroke="black" stroke-width="0.5" points="465,-19 402,-19 402,0 465,0 465,-19"/>
<text text-anchor="middle" x="433.5" y="-7" font-family="Vera Sans, DejaVu Sans, Liberation Sans, Arial, Helvetica, sans" font-size="10.00">vmc.VMC</text>
</a>
</g>
</g>
<!-- abstract_variational_driver.AbstractVariationalDriver&#45;&gt;vmc.VMC -->
<g id="edge2" class="edge">
<title>abstract_variational_driver.AbstractVariationalDriver&#45;&gt;vmc.VMC</title>
<path fill="none" stroke="black" stroke-width="0.5" d="M366.08,-9.5C377.09,-9.5 387.49,-9.5 396.63,-9.5"/>
<polygon fill="black" stroke="black" stroke-width="0.5" points="396.87,-11.25 401.87,-9.5 396.87,-7.75 396.87,-11.25"/>
</g>
</g>
</svg>
