<?xml version="1.0" encoding="UTF-8" standalone="no"?>
<!DOCTYPE svg PUBLIC "-//W3C//DTD SVG 1.1//EN"
 "http://www.w3.org/Graphics/SVG/1.1/DTD/svg11.dtd">
<!-- Generated by graphviz version 2.43.0 (0)
 -->
<!-- Title: inheritance17aa8197cb Pages: 1 -->
<svg width="378pt" height="27pt"
 viewBox="0.00 0.00 378.00 27.00" xmlns="http://www.w3.org/2000/svg" xmlns:xlink="http://www.w3.org/1999/xlink">
<g id="graph0" class="graph" transform="scale(1 1) rotate(0) translate(4 23)">
<title>inheritance17aa8197cb</title>
<!-- abc.ABC -->
<g id="node1" class="node">
<title>abc.ABC</title>
<g id="a_node1"><a xlink:title="Helper class that provides a standard way to create an ABC using">
<polygon fill="white" stroke="black" stroke-width="0.5" points="57,-19 0,-19 0,0 57,0 57,-19"/>
<text text-anchor="middle" x="28.5" y="-7" font-family="Vera Sans, DejaVu Sans, Liberation Sans, Arial, Helvetica, sans" font-size="10.00">abc.ABC</text>
</a>
</g>
</g>
<!-- sampler.Sampler -->
<g id="node3" class="node">
<title>sampler.Sampler</title>
<g id="a_node3"><a xlink:href="../netket.sampler.Sampler.html#netket.sampler.Sampler" xlink:title="Abstract base class for all samplers." target="_top">
<polygon fill="white" stroke="black" stroke-width="0.5" points="192,-19 93,-19 93,0 192,0 192,-19"/>
<text text-anchor="middle" x="142.5" y="-7" font-family="Vera Sans, DejaVu Sans, Liberation Sans, Arial, Helvetica, sans" font-size="10.00">sampler.Sampler</text>
</a>
</g>
</g>
<!-- abc.ABC&#45;&gt;sampler.Sampler -->
<g id="edge2" class="edge">
<title>abc.ABC&#45;&gt;sampler.Sampler</title>
<path fill="none" stroke="black" stroke-width="0.5" d="M57.19,-9.5C66.43,-9.5 77.06,-9.5 87.6,-9.5"/>
<polygon fill="black" stroke="black" stroke-width="0.5" points="87.76,-11.25 92.76,-9.5 87.76,-7.75 87.76,-11.25"/>
</g>
<!-- sampler.ARDirectSampler -->
<g id="node2" class="node">
<title>sampler.ARDirectSampler</title>
<g id="a_node2"><a xlink:href="../docs/_generated/samplers/netket.sampler.ARDirectSampler.html#netket.sampler.ARDirectSampler" xlink:title="Direct sampler for autoregressive neural networks." target="_top">
<polygon fill="white" stroke="black" stroke-width="0.5" points="370,-19 228,-19 228,0 370,0 370,-19"/>
<text text-anchor="middle" x="299" y="-7" font-family="Vera Sans, DejaVu Sans, Liberation Sans, Arial, Helvetica, sans" font-size="10.00">sampler.ARDirectSampler</text>
</a>
</g>
</g>
<!-- sampler.Sampler&#45;&gt;sampler.ARDirectSampler -->
<g id="edge1" class="edge">
<title>sampler.Sampler&#45;&gt;sampler.ARDirectSampler</title>
<path fill="none" stroke="black" stroke-width="0.5" d="M192.38,-9.5C202.11,-9.5 212.53,-9.5 222.9,-9.5"/>
<polygon fill="black" stroke="black" stroke-width="0.5" points="222.98,-11.25 227.98,-9.5 222.98,-7.75 222.98,-11.25"/>
</g>
</g>
</svg>
