<?xml version="1.0" encoding="UTF-8" standalone="no"?>
<!DOCTYPE svg PUBLIC "-//W3C//DTD SVG 1.1//EN"
 "http://www.w3.org/Graphics/SVG/1.1/DTD/svg11.dtd">
<!-- Generated by graphviz version 2.43.0 (0)
 -->
<!-- Title: inheritance5344edd905 Pages: 1 -->
<svg width="330pt" height="27pt"
 viewBox="0.00 0.00 330.00 27.00" xmlns="http://www.w3.org/2000/svg" xmlns:xlink="http://www.w3.org/1999/xlink">
<g id="graph0" class="graph" transform="scale(1 1) rotate(0) translate(4 23)">
<title>inheritance5344edd905</title>
<!-- abc.ABC -->
<g id="node1" class="node">
<title>abc.ABC</title>
<g id="a_node1"><a xlink:title="Helper class that provides a standard way to create an ABC using">
<polygon fill="white" stroke="black" stroke-width="0.5" points="57,-19 0,-19 0,0 57,0 57,-19"/>
<text text-anchor="middle" x="28.5" y="-7" font-family="Vera Sans, DejaVu Sans, Liberation Sans, Arial, Helvetica, sans" font-size="10.00">abc.ABC</text>
</a>
</g>
</g>
<!-- vqs.VariationalState -->
<g id="node3" class="node">
<title>vqs.VariationalState</title>
<g id="a_node3"><a xlink:href="../netket.vqs.VariationalState.html#netket.vqs.VariationalState" xlink:title="Abstract class for variational states representing either pure states" target="_top">
<polygon fill="white" stroke="black" stroke-width="0.5" points="208,-19 93,-19 93,0 208,0 208,-19"/>
<text text-anchor="middle" x="150.5" y="-7" font-family="Vera Sans, DejaVu Sans, Liberation Sans, Arial, Helvetica, sans" font-size="10.00">vqs.VariationalState</text>
</a>
</g>
</g>
<!-- abc.ABC&#45;&gt;vqs.VariationalState -->
<g id="edge2" class="edge">
<title>abc.ABC&#45;&gt;vqs.VariationalState</title>
<path fill="none" stroke="black" stroke-width="0.5" d="M57.03,-9.5C66.19,-9.5 76.79,-9.5 87.48,-9.5"/>
<polygon fill="black" stroke="black" stroke-width="0.5" points="87.72,-11.25 92.72,-9.5 87.72,-7.75 87.72,-11.25"/>
</g>
<!-- vqs.MCState -->
<g id="node2" class="node">
<title>vqs.MCState</title>
<g id="a_node2"><a xlink:href="../docs/_generated/variational/netket.vqs.MCState.html#netket.vqs.MCState" xlink:title="Variational State for a Variational Neural Quantum State." target="_top">
<polygon fill="white" stroke="black" stroke-width="0.5" points="322,-19 244,-19 244,0 322,0 322,-19"/>
<text text-anchor="middle" x="283" y="-7" font-family="Vera Sans, DejaVu Sans, Liberation Sans, Arial, Helvetica, sans" font-size="10.00">vqs.MCState</text>
</a>
</g>
</g>
<!-- vqs.VariationalState&#45;&gt;vqs.MCState -->
<g id="edge1" class="edge">
<title>vqs.VariationalState&#45;&gt;vqs.MCState</title>
<path fill="none" stroke="black" stroke-width="0.5" d="M208.36,-9.5C218.54,-9.5 228.99,-9.5 238.71,-9.5"/>
<polygon fill="black" stroke="black" stroke-width="0.5" points="238.72,-11.25 243.72,-9.5 238.72,-7.75 238.72,-11.25"/>
</g>
</g>
</svg>
