<?xml version="1.0" encoding="UTF-8" standalone="no"?>
<!DOCTYPE svg PUBLIC "-//W3C//DTD SVG 1.1//EN"
 "http://www.w3.org/Graphics/SVG/1.1/DTD/svg11.dtd">
<!-- Generated by graphviz version 2.43.0 (0)
 -->
<!-- Title: inheritance858c3b2527 Pages: 1 -->
<svg width="576pt" height="17pt"
 viewBox="0.00 0.00 576.00 16.83" xmlns="http://www.w3.org/2000/svg" xmlns:xlink="http://www.w3.org/1999/xlink">
<g id="graph0" class="graph" transform="scale(1.6 1.6) rotate(0) translate(4 23)">
<title>inheritance858c3b2527</title>
<!-- _abstract_operator.AbstractOperator -->
<g id="node1" class="node">
<title>_abstract_operator.AbstractOperator</title>
<g id="a_node1"><a xlink:title="Abstract class for quantum Operators. This class prototypes the methods">
<polygon fill="white" stroke="black" stroke-width="0.5" points="287,-19 93,-19 93,0 287,0 287,-19"/>
<text text-anchor="middle" x="190" y="-7" font-family="Vera Sans, DejaVu Sans, Liberation Sans, Arial, Helvetica, sans" font-size="10.00">_abstract_operator.AbstractOperator</text>
</a>
</g>
</g>
<!-- _discrete_operator.DiscreteOperator -->
<g id="node3" class="node">
<title>_discrete_operator.DiscreteOperator</title>
<g id="a_node3"><a xlink:title="This class is the base class for operators defined on a">
<polygon fill="white" stroke="black" stroke-width="0.5" points="516,-19 323,-19 323,0 516,0 516,-19"/>
<text text-anchor="middle" x="419.5" y="-7" font-family="Vera Sans, DejaVu Sans, Liberation Sans, Arial, Helvetica, sans" font-size="10.00">_discrete_operator.DiscreteOperator</text>
</a>
</g>
</g>
<!-- _abstract_operator.AbstractOperator&#45;&gt;_discrete_operator.DiscreteOperator -->
<g id="edge2" class="edge">
<title>_abstract_operator.AbstractOperator&#45;&gt;_discrete_operator.DiscreteOperator</title>
<path fill="none" stroke="black" stroke-width="0.5" d="M287.15,-9.5C297.17,-9.5 307.37,-9.5 317.44,-9.5"/>
<polygon fill="black" stroke="black" stroke-width="0.5" points="317.69,-11.25 322.69,-9.5 317.69,-7.75 317.69,-11.25"/>
</g>
<!-- abc.ABC -->
<g id="node2" class="node">
<title>abc.ABC</title>
<g id="a_node2"><a xlink:title="Helper class that provides a standard way to create an ABC using">
<polygon fill="white" stroke="black" stroke-width="0.5" points="57,-19 0,-19 0,0 57,0 57,-19"/>
<text text-anchor="middle" x="28.5" y="-7" font-family="Vera Sans, DejaVu Sans, Liberation Sans, Arial, Helvetica, sans" font-size="10.00">abc.ABC</text>
</a>
</g>
</g>
<!-- abc.ABC&#45;&gt;_abstract_operator.AbstractOperator -->
<g id="edge1" class="edge">
<title>abc.ABC&#45;&gt;_abstract_operator.AbstractOperator</title>
<path fill="none" stroke="black" stroke-width="0.5" d="M57.28,-9.5C66.18,-9.5 76.61,-9.5 87.64,-9.5"/>
<polygon fill="black" stroke="black" stroke-width="0.5" points="87.75,-11.25 92.75,-9.5 87.75,-7.75 87.75,-11.25"/>
</g>
<!-- _hamiltonian.SpecialHamiltonian -->
<g id="node5" class="node">
<title>_hamiltonian.SpecialHamiltonian</title>
<polygon fill="white" stroke="black" stroke-width="0.5" points="731,-19 552,-19 552,0 731,0 731,-19"/>
<text text-anchor="middle" x="641.5" y="-7" font-family="Vera Sans, DejaVu Sans, Liberation Sans, Arial, Helvetica, sans" font-size="10.00">_hamiltonian.SpecialHamiltonian</text>
</g>
<!-- _discrete_operator.DiscreteOperator&#45;&gt;_hamiltonian.SpecialHamiltonian -->
<g id="edge4" class="edge">
<title>_discrete_operator.DiscreteOperator&#45;&gt;_hamiltonian.SpecialHamiltonian</title>
<path fill="none" stroke="black" stroke-width="0.5" d="M516.04,-9.5C526.3,-9.5 536.74,-9.5 546.98,-9.5"/>
<polygon fill="black" stroke="black" stroke-width="0.5" points="546.99,-11.25 551.99,-9.5 546.99,-7.75 546.99,-11.25"/>
</g>
<!-- _hamiltonian.BoseHubbard -->
<g id="node4" class="node">
<title>_hamiltonian.BoseHubbard</title>
<g id="a_node4"><a xlink:title="An extended Bose Hubbard model Hamiltonian operator, containing both">
<polygon fill="white" stroke="black" stroke-width="0.5" points="916,-19 767,-19 767,0 916,0 916,-19"/>
<text text-anchor="middle" x="841.5" y="-7" font-family="Vera Sans, DejaVu Sans, Liberation Sans, Arial, Helvetica, sans" font-size="10.00">_hamiltonian.BoseHubbard</text>
</a>
</g>
</g>
<!-- _hamiltonian.SpecialHamiltonian&#45;&gt;_hamiltonian.BoseHubbard -->
<g id="edge3" class="edge">
<title>_hamiltonian.SpecialHamiltonian&#45;&gt;_hamiltonian.BoseHubbard</title>
<path fill="none" stroke="black" stroke-width="0.5" d="M731.08,-9.5C741.25,-9.5 751.57,-9.5 761.6,-9.5"/>
<polygon fill="black" stroke="black" stroke-width="0.5" points="761.82,-11.25 766.82,-9.5 761.82,-7.75 761.82,-11.25"/>
</g>
</g>
</svg>
