<?xml version="1.0" encoding="UTF-8" standalone="no"?>
<!DOCTYPE svg PUBLIC "-//W3C//DTD SVG 1.1//EN"
 "http://www.w3.org/Graphics/SVG/1.1/DTD/svg11.dtd">
<!-- Generated by graphviz version 2.43.0 (0)
 -->
<!-- Title: inheritance22efab6f30 Pages: 1 -->
<svg width="576pt" height="21pt"
 viewBox="0.00 0.00 576.00 20.65" xmlns="http://www.w3.org/2000/svg" xmlns:xlink="http://www.w3.org/1999/xlink">
<g id="graph0" class="graph" transform="scale(1.31 1.31) rotate(0) translate(4 23)">
<title>inheritance22efab6f30</title>
<!-- abc.ABC -->
<g id="node1" class="node">
<title>abc.ABC</title>
<g id="a_node1"><a xlink:title="Helper class that provides a standard way to create an ABC using">
<polygon fill="white" stroke="black" stroke-width="0.5" points="57,-19 0,-19 0,0 57,0 57,-19"/>
<text text-anchor="middle" x="28.5" y="-7" font-family="Vera Sans, DejaVu Sans, Liberation Sans, Arial, Helvetica, sans" font-size="10.00">abc.ABC</text>
</a>
</g>
</g>
<!-- hilbert.AbstractHilbert -->
<g id="node4" class="node">
<title>hilbert.AbstractHilbert</title>
<g id="a_node4"><a xlink:href="../netket.hilbert.AbstractHilbert.html#netket.hilbert.AbstractHilbert" xlink:title="Abstract class for NetKet hilbert objects." target="_top">
<polygon fill="white" stroke="black" stroke-width="0.5" points="218,-19 93,-19 93,0 218,0 218,-19"/>
<text text-anchor="middle" x="155.5" y="-7" font-family="Vera Sans, DejaVu Sans, Liberation Sans, Arial, Helvetica, sans" font-size="10.00">hilbert.AbstractHilbert</text>
</a>
</g>
</g>
<!-- abc.ABC&#45;&gt;hilbert.AbstractHilbert -->
<g id="edge2" class="edge">
<title>abc.ABC&#45;&gt;hilbert.AbstractHilbert</title>
<path fill="none" stroke="black" stroke-width="0.5" d="M57.24,-9.5C66.33,-9.5 76.85,-9.5 87.55,-9.5"/>
<polygon fill="black" stroke="black" stroke-width="0.5" points="87.81,-11.25 92.81,-9.5 87.81,-7.75 87.81,-11.25"/>
</g>
<!-- doubled_hilbert.DoubledHilbert -->
<g id="node2" class="node">
<title>doubled_hilbert.DoubledHilbert</title>
<g id="a_node2"><a xlink:title="Superoperatorial hilbert space for states living in the tensorised state">
<polygon fill="white" stroke="black" stroke-width="0.5" points="584,-19 415,-19 415,0 584,0 584,-19"/>
<text text-anchor="middle" x="499.5" y="-7" font-family="Vera Sans, DejaVu Sans, Liberation Sans, Arial, Helvetica, sans" font-size="10.00">doubled_hilbert.DoubledHilbert</text>
</a>
</g>
</g>
<!-- hilbert.DoubledHilbert -->
<g id="node5" class="node">
<title>hilbert.DoubledHilbert</title>
<g id="a_node5"><a xlink:href="../docs/_generated/hilbert/netket.hilbert.DoubledHilbert.html#netket.hilbert.DoubledHilbert" xlink:title="Superoperatorial hilbert space for states living in the tensorised state" target="_top">
<polygon fill="white" stroke="black" stroke-width="0.5" points="745,-19 620,-19 620,0 745,0 745,-19"/>
<text text-anchor="middle" x="682.5" y="-7" font-family="Vera Sans, DejaVu Sans, Liberation Sans, Arial, Helvetica, sans" font-size="10.00">hilbert.DoubledHilbert</text>
</a>
</g>
</g>
<!-- doubled_hilbert.DoubledHilbert&#45;&gt;hilbert.DoubledHilbert -->
<g id="edge4" class="edge">
<title>doubled_hilbert.DoubledHilbert&#45;&gt;hilbert.DoubledHilbert</title>
<path fill="none" stroke="black" stroke-width="0.5" d="M584.11,-9.5C594.37,-9.5 604.74,-9.5 614.7,-9.5"/>
<polygon fill="black" stroke="black" stroke-width="0.5" points="614.87,-11.25 619.87,-9.5 614.87,-7.75 614.87,-11.25"/>
</g>
<!-- hilbert.DiscreteHilbert -->
<g id="node3" class="node">
<title>hilbert.DiscreteHilbert</title>
<g id="a_node3"><a xlink:title="Abstract class for an hilbert space defined on a lattice.">
<polygon fill="white" stroke="black" stroke-width="0.5" points="379,-19 254,-19 254,0 379,0 379,-19"/>
<text text-anchor="middle" x="316.5" y="-7" font-family="Vera Sans, DejaVu Sans, Liberation Sans, Arial, Helvetica, sans" font-size="10.00">hilbert.DiscreteHilbert</text>
</a>
</g>
</g>
<!-- hilbert.DiscreteHilbert&#45;&gt;doubled_hilbert.DoubledHilbert -->
<g id="edge1" class="edge">
<title>hilbert.DiscreteHilbert&#45;&gt;doubled_hilbert.DoubledHilbert</title>
<path fill="none" stroke="black" stroke-width="0.5" d="M379.03,-9.5C388.9,-9.5 399.27,-9.5 409.62,-9.5"/>
<polygon fill="black" stroke="black" stroke-width="0.5" points="409.7,-11.25 414.7,-9.5 409.7,-7.75 409.7,-11.25"/>
</g>
<!-- hilbert.AbstractHilbert&#45;&gt;hilbert.DiscreteHilbert -->
<g id="edge3" class="edge">
<title>hilbert.AbstractHilbert&#45;&gt;hilbert.DiscreteHilbert</title>
<path fill="none" stroke="black" stroke-width="0.5" d="M218.43,-9.5C228.3,-9.5 238.56,-9.5 248.55,-9.5"/>
<polygon fill="black" stroke="black" stroke-width="0.5" points="248.74,-11.25 253.74,-9.5 248.74,-7.75 248.74,-11.25"/>
</g>
</g>
</svg>
