<?xml version="1.0" encoding="UTF-8" standalone="no"?>
<!DOCTYPE svg PUBLIC "-//W3C//DTD SVG 1.1//EN"
 "http://www.w3.org/Graphics/SVG/1.1/DTD/svg11.dtd">
<!-- Generated by graphviz version 2.43.0 (0)
 -->
<!-- Title: inheritancef31f57a009 Pages: 1 -->
<svg width="576pt" height="20pt"
 viewBox="0.00 0.00 576.00 20.12" xmlns="http://www.w3.org/2000/svg" xmlns:xlink="http://www.w3.org/1999/xlink">
<g id="graph0" class="graph" transform="scale(1.34 1.34) rotate(0) translate(4 23)">
<title>inheritancef31f57a009</title>
<!-- abc.ABC -->
<g id="node1" class="node">
<title>abc.ABC</title>
<g id="a_node1"><a xlink:title="Helper class that provides a standard way to create an ABC using">
<polygon fill="white" stroke="black" stroke-width="0.5" points="57,-19 0,-19 0,0 57,0 57,-19"/>
<text text-anchor="middle" x="28.5" y="-7" font-family="Vera Sans, DejaVu Sans, Liberation Sans, Arial, Helvetica, sans" font-size="10.00">abc.ABC</text>
</a>
</g>
</g>
<!-- hilbert.AbstractHilbert -->
<g id="node2" class="node">
<title>hilbert.AbstractHilbert</title>
<g id="a_node2"><a xlink:href="../netket.hilbert.AbstractHilbert.html#netket.hilbert.AbstractHilbert" xlink:title="Abstract class for NetKet hilbert objects." target="_top">
<polygon fill="white" stroke="black" stroke-width="0.5" points="218,-19 93,-19 93,0 218,0 218,-19"/>
<text text-anchor="middle" x="155.5" y="-7" font-family="Vera Sans, DejaVu Sans, Liberation Sans, Arial, Helvetica, sans" font-size="10.00">hilbert.AbstractHilbert</text>
</a>
</g>
</g>
<!-- abc.ABC&#45;&gt;hilbert.AbstractHilbert -->
<g id="edge1" class="edge">
<title>abc.ABC&#45;&gt;hilbert.AbstractHilbert</title>
<path fill="none" stroke="black" stroke-width="0.5" d="M57.24,-9.5C66.33,-9.5 76.85,-9.5 87.55,-9.5"/>
<polygon fill="black" stroke="black" stroke-width="0.5" points="87.81,-11.25 92.81,-9.5 87.81,-7.75 87.81,-11.25"/>
</g>
<!-- hilbert.DiscreteHilbert -->
<g id="node5" class="node">
<title>hilbert.DiscreteHilbert</title>
<g id="a_node5"><a xlink:title="Abstract class for an hilbert space defined on a lattice.">
<polygon fill="white" stroke="black" stroke-width="0.5" points="379,-19 254,-19 254,0 379,0 379,-19"/>
<text text-anchor="middle" x="316.5" y="-7" font-family="Vera Sans, DejaVu Sans, Liberation Sans, Arial, Helvetica, sans" font-size="10.00">hilbert.DiscreteHilbert</text>
</a>
</g>
</g>
<!-- hilbert.AbstractHilbert&#45;&gt;hilbert.DiscreteHilbert -->
<g id="edge3" class="edge">
<title>hilbert.AbstractHilbert&#45;&gt;hilbert.DiscreteHilbert</title>
<path fill="none" stroke="black" stroke-width="0.5" d="M218.43,-9.5C228.3,-9.5 238.56,-9.5 248.55,-9.5"/>
<polygon fill="black" stroke="black" stroke-width="0.5" points="248.74,-11.25 253.74,-9.5 248.74,-7.75 248.74,-11.25"/>
</g>
<!-- hilbert.CustomHilbert -->
<g id="node3" class="node">
<title>hilbert.CustomHilbert</title>
<g id="a_node3"><a xlink:href="../docs/_generated/hilbert/netket.hilbert.CustomHilbert.html#netket.hilbert.CustomHilbert" xlink:title="A custom hilbert space with discrete local quantum numbers." target="_top">
<polygon fill="white" stroke="black" stroke-width="0.5" points="765,-19 643,-19 643,0 765,0 765,-19"/>
<text text-anchor="middle" x="704" y="-7" font-family="Vera Sans, DejaVu Sans, Liberation Sans, Arial, Helvetica, sans" font-size="10.00">hilbert.CustomHilbert</text>
</a>
</g>
</g>
<!-- homogeneous.HomogeneousHilbert -->
<g id="node4" class="node">
<title>homogeneous.HomogeneousHilbert</title>
<g id="a_node4"><a xlink:title="The Abstract base class for homogeneous hilbert spaces.">
<polygon fill="white" stroke="black" stroke-width="0.5" points="607,-19 415,-19 415,0 607,0 607,-19"/>
<text text-anchor="middle" x="511" y="-7" font-family="Vera Sans, DejaVu Sans, Liberation Sans, Arial, Helvetica, sans" font-size="10.00">homogeneous.HomogeneousHilbert</text>
</a>
</g>
</g>
<!-- homogeneous.HomogeneousHilbert&#45;&gt;hilbert.CustomHilbert -->
<g id="edge2" class="edge">
<title>homogeneous.HomogeneousHilbert&#45;&gt;hilbert.CustomHilbert</title>
<path fill="none" stroke="black" stroke-width="0.5" d="M607.22,-9.5C617.56,-9.5 627.91,-9.5 637.78,-9.5"/>
<polygon fill="black" stroke="black" stroke-width="0.5" points="637.9,-11.25 642.9,-9.5 637.9,-7.75 637.9,-11.25"/>
</g>
<!-- hilbert.DiscreteHilbert&#45;&gt;homogeneous.HomogeneousHilbert -->
<g id="edge4" class="edge">
<title>hilbert.DiscreteHilbert&#45;&gt;homogeneous.HomogeneousHilbert</title>
<path fill="none" stroke="black" stroke-width="0.5" d="M379.2,-9.5C389.03,-9.5 399.41,-9.5 409.86,-9.5"/>
<polygon fill="black" stroke="black" stroke-width="0.5" points="409.99,-11.25 414.99,-9.5 409.99,-7.75 409.99,-11.25"/>
</g>
</g>
</svg>
