<?xml version="1.0" encoding="UTF-8" standalone="no"?>
<!DOCTYPE svg PUBLIC "-//W3C//DTD SVG 1.1//EN"
 "http://www.w3.org/Graphics/SVG/1.1/DTD/svg11.dtd">
<!-- Generated by graphviz version 2.43.0 (0)
 -->
<!-- Title: inheritance929a045cdb Pages: 1 -->
<svg width="576pt" height="26pt"
 viewBox="0.00 0.00 576.00 25.54" xmlns="http://www.w3.org/2000/svg" xmlns:xlink="http://www.w3.org/1999/xlink">
<g id="graph0" class="graph" transform="scale(1.06 1.06) rotate(0) translate(4 23)">
<title>inheritance929a045cdb</title>
<!-- abc.ABC -->
<g id="node1" class="node">
<title>abc.ABC</title>
<g id="a_node1"><a xlink:title="Helper class that provides a standard way to create an ABC using">
<polygon fill="white" stroke="black" stroke-width="0.5" points="57,-19 0,-19 0,0 57,0 57,-19"/>
<text text-anchor="middle" x="28.5" y="-7" font-family="Vera Sans, DejaVu Sans, Liberation Sans, Arial, Helvetica, sans" font-size="10.00">abc.ABC</text>
</a>
</g>
</g>
<!-- sampler.Sampler -->
<g id="node3" class="node">
<title>sampler.Sampler</title>
<g id="a_node3"><a xlink:href="../netket.sampler.Sampler.html#netket.sampler.Sampler" xlink:title="Abstract base class for all samplers." target="_top">
<polygon fill="white" stroke="black" stroke-width="0.5" points="192,-19 93,-19 93,0 192,0 192,-19"/>
<text text-anchor="middle" x="142.5" y="-7" font-family="Vera Sans, DejaVu Sans, Liberation Sans, Arial, Helvetica, sans" font-size="10.00">sampler.Sampler</text>
</a>
</g>
</g>
<!-- abc.ABC&#45;&gt;sampler.Sampler -->
<g id="edge3" class="edge">
<title>abc.ABC&#45;&gt;sampler.Sampler</title>
<path fill="none" stroke="black" stroke-width="0.5" d="M57.19,-9.5C66.43,-9.5 77.06,-9.5 87.6,-9.5"/>
<polygon fill="black" stroke="black" stroke-width="0.5" points="87.76,-11.25 92.76,-9.5 87.76,-7.75 87.76,-11.25"/>
</g>
<!-- sampler.MetropolisSampler -->
<g id="node2" class="node">
<title>sampler.MetropolisSampler</title>
<g id="a_node2"><a xlink:href="../netket.sampler.MetropolisSampler.html#netket.sampler.MetropolisSampler" xlink:title="Metropolis&#45;Hastings sampler for an Hilbert space according to a specific transition rule." target="_top">
<polygon fill="white" stroke="black" stroke-width="0.5" points="379,-19 228,-19 228,0 379,0 379,-19"/>
<text text-anchor="middle" x="303.5" y="-7" font-family="Vera Sans, DejaVu Sans, Liberation Sans, Arial, Helvetica, sans" font-size="10.00">sampler.MetropolisSampler</text>
</a>
</g>
</g>
<!-- sampler.MetropolisSamplerNumpy -->
<g id="node4" class="node">
<title>sampler.MetropolisSamplerNumpy</title>
<g id="a_node4"><a xlink:href="../docs/_generated/samplers/netket.sampler.MetropolisSamplerNumpy.html#netket.sampler.MetropolisSamplerNumpy" xlink:title="Metropolis&#45;Hastings sampler for an Hilbert space according to a specific transition" target="_top">
<polygon fill="white" stroke="black" stroke-width="0.5" points="601,-19 415,-19 415,0 601,0 601,-19"/>
<text text-anchor="middle" x="508" y="-7" font-family="Vera Sans, DejaVu Sans, Liberation Sans, Arial, Helvetica, sans" font-size="10.00">sampler.MetropolisSamplerNumpy</text>
</a>
</g>
</g>
<!-- sampler.MetropolisSampler&#45;&gt;sampler.MetropolisSamplerNumpy -->
<g id="edge2" class="edge">
<title>sampler.MetropolisSampler&#45;&gt;sampler.MetropolisSamplerNumpy</title>
<path fill="none" stroke="black" stroke-width="0.5" d="M379.04,-9.5C389.02,-9.5 399.38,-9.5 409.68,-9.5"/>
<polygon fill="black" stroke="black" stroke-width="0.5" points="409.73,-11.25 414.73,-9.5 409.73,-7.75 409.73,-11.25"/>
</g>
<!-- sampler.Sampler&#45;&gt;sampler.MetropolisSampler -->
<g id="edge1" class="edge">
<title>sampler.Sampler&#45;&gt;sampler.MetropolisSampler</title>
<path fill="none" stroke="black" stroke-width="0.5" d="M192.07,-9.5C201.8,-9.5 212.27,-9.5 222.74,-9.5"/>
<polygon fill="black" stroke="black" stroke-width="0.5" points="222.87,-11.25 227.87,-9.5 222.87,-7.75 222.87,-11.25"/>
</g>
</g>
</svg>
